<?xml version="1.0" standalone="no"?>
<!DOCTYPE svg PUBLIC "-//W3C//DTD SVG 20010904//EN"
 "http://www.w3.org/TR/2001/REC-SVG-20010904/DTD/svg10.dtd">
<svg version="1.0" xmlns="http://www.w3.org/2000/svg"
 width="782.000000pt" height="685.000000pt" viewBox="0 0 782.000000 685.000000"
 preserveAspectRatio="xMidYMid meet">

<g transform="translate(0.000000,685.000000) scale(0.100000,-0.100000)"
fill="#000000" stroke="none">
<path d="M3754 5016 c-3 -8 -4 -31 -2 -52 l3 -39 19 37 c19 36 17 68 -4 68 -6
0 -13 -6 -16 -14z"/>
<path d="M3760 4789 c-47 -3 -97 -10 -111 -16 -15 -7 -67 -16 -117 -22 -62 -7
-109 -19 -149 -37 -31 -15 -73 -31 -93 -35 -71 -15 -181 -47 -193 -57 -7 -5
-25 -12 -41 -16 -16 -4 -45 -18 -65 -32 -19 -13 -44 -24 -55 -24 -11 0 -29 -8
-40 -19 -35 -31 -219 -69 -274 -56 -13 3 -56 -6 -97 -20 -40 -14 -82 -25 -93
-25 -11 0 -47 -13 -80 -30 -34 -16 -66 -30 -73 -30 -18 0 -120 -49 -154 -75
-16 -12 -43 -29 -60 -38 -30 -15 -172 -149 -209 -197 -27 -33 -96 -157 -96
-170 0 -9 -35 -61 -95 -139 -33 -44 -95 -100 -129 -117 -45 -23 -43 -20 -92
-136 -20 -49 -40 -88 -45 -88 -5 0 -9 -7 -9 -15 0 -7 -6 -18 -13 -22 -8 -4
-22 -21 -32 -38 -10 -16 -28 -40 -38 -52 -17 -19 -19 -31 -14 -82 4 -33 17
-88 29 -123 21 -58 23 -76 19 -223 -4 -175 -4 -178 -15 -250 -11 -76 -14 -81
-31 -59 -8 10 -15 14 -15 7 0 -6 5 -15 10 -18 13 -8 13 -85 0 -85 -5 0 -10 -7
-10 -16 0 -8 5 -12 10 -9 6 4 10 -13 10 -44 0 -31 6 -55 15 -65 8 -8 15 -21
15 -30 0 -8 5 -18 11 -22 6 -3 8 -17 5 -30 -4 -14 -2 -24 4 -24 14 0 13 -77
-2 -82 -10 -4 12 -33 75 -99 9 -11 17 -22 17 -25 0 -10 28 -34 41 -34 6 0 19
8 28 17 9 10 42 30 74 45 54 27 58 27 75 10 26 -26 48 -64 56 -94 3 -15 42
-63 86 -107 44 -44 80 -87 80 -95 0 -33 -38 -57 -88 -56 -26 1 -57 -2 -68 -5
-18 -5 -24 -1 -32 22 -6 17 -11 21 -11 11 -1 -14 -10 -18 -45 -18 -26 0 -48 6
-56 15 -10 12 -41 15 -156 15 -89 0 -144 -4 -144 -10 0 -5 -6 -10 -14 -10 -7
0 -19 -7 -26 -15 -13 -16 -58 -19 -134 -9 -36 5 -46 11 -46 25 0 11 -4 19 -10
19 -5 0 -10 -9 -10 -20 0 -11 5 -20 10 -20 6 0 10 -9 10 -20 0 -13 -7 -20 -19
-20 -17 0 -20 -8 -23 -53 -3 -49 -4 -52 -30 -52 -24 1 -28 -3 -28 -27 0 -15
-5 -28 -11 -28 -6 0 -24 -13 -41 -30 -16 -16 -36 -30 -44 -30 -10 0 -14 -13
-14 -50 0 -38 4 -50 15 -50 8 0 15 -5 15 -11 0 -14 55 -69 69 -69 6 0 11 -17
11 -39 0 -30 4 -40 20 -44 40 -10 18 -45 -23 -38 -5 1 -11 -8 -14 -19 -3 -13
-14 -20 -29 -20 -13 0 -32 -4 -42 -9 -9 -6 -47 -20 -85 -31 -37 -12 -67 -25
-67 -29 0 -13 -124 -50 -165 -49 -22 0 -53 -3 -68 -7 -20 -5 -33 -3 -47 10
-25 23 -78 13 -114 -20 -15 -14 -37 -24 -49 -23 -12 1 -49 -16 -82 -38 -57
-37 -85 -51 -162 -77 l-33 -10 0 -404 0 -403 3910 0 3910 0 0 690 0 691 -41
-3 c-30 -1 -44 3 -50 15 -6 9 -19 17 -29 17 -11 0 -20 4 -20 9 0 5 -15 13 -32
16 -18 4 -37 11 -43 15 -33 25 -145 9 -186 -26 -19 -17 -59 -18 -59 -3 0 18
-229 7 -240 -11 -5 -8 -33 -26 -62 -40 -36 -17 -58 -35 -67 -55 -8 -16 -18
-31 -23 -33 -4 -2 -8 -9 -8 -16 0 -7 -18 -19 -40 -26 -22 -7 -40 -16 -40 -20
0 -4 -21 -13 -47 -19 -27 -7 -56 -17 -65 -22 -10 -5 -25 -9 -33 -9 -8 0 -15
-4 -15 -9 0 -5 -15 -12 -32 -16 -20 -4 -49 -24 -73 -50 -43 -45 -77 -60 -179
-75 -60 -9 -60 -9 -92 26 -21 21 -31 40 -27 50 3 9 1 19 -4 23 -17 10 -62 131
-49 131 6 0 -4 14 -21 30 -18 16 -33 34 -33 40 0 20 -118 133 -130 125 -7 -4
-18 2 -27 15 -10 14 -22 20 -34 17 -11 -3 -19 -1 -19 4 0 5 9 9 21 9 11 0 17
4 14 10 -4 6 -14 10 -23 9 -22 -4 -142 41 -142 52 0 5 -7 9 -15 9 -8 0 -15 -7
-15 -15 0 -27 -18 -16 -66 40 -40 46 -53 55 -82 55 -24 0 -42 9 -65 31 -17 18
-33 27 -35 20 -2 -6 -14 -11 -27 -11 -13 0 -25 -6 -27 -12 -5 -15 -23 1 -51
45 l-18 27 43 50 c24 28 46 50 50 50 4 0 29 20 55 45 26 24 51 45 55 45 11 0
68 61 68 72 0 5 18 30 40 55 22 25 40 50 40 54 0 5 7 9 16 9 8 0 13 4 10 9 -3
4 6 19 19 31 14 13 25 29 25 35 0 6 13 24 30 40 16 15 34 43 41 62 6 18 16 33
22 34 16 0 71 85 87 134 7 22 19 54 26 70 10 24 27 111 27 139 0 3 18 42 41
88 25 51 50 87 64 93 12 5 22 13 22 17 0 4 16 14 35 23 20 8 54 33 76 55 22
22 44 38 50 35 5 -4 9 -1 9 4 0 6 9 11 20 11 11 0 20 5 20 10 0 6 7 10 15 10
9 0 18 7 21 15 4 10 13 13 25 10 14 -5 19 -1 19 14 0 12 7 21 15 21 8 0 19 9
25 19 5 11 25 25 44 31 57 18 62 85 6 73 -22 -4 -32 0 -42 16 -7 12 -17 21
-23 21 -13 0 -48 60 -50 85 -3 41 -18 91 -41 135 -13 25 -24 51 -24 59 0 8 -9
35 -21 60 -11 25 -26 60 -34 76 -7 17 -14 54 -14 84 -1 50 -35 152 -53 159 -4
2 -8 18 -8 36 0 24 -10 41 -40 71 -22 21 -40 42 -40 47 0 4 -11 18 -25 32 -14
14 -25 32 -25 40 0 8 -16 20 -35 27 -19 7 -37 20 -40 28 -8 22 -104 123 -138
144 -15 10 -25 22 -23 26 8 13 -109 81 -149 88 -23 4 -35 11 -36 22 0 12 -2
13 -6 2 -3 -8 -17 -24 -31 -36 -21 -18 -24 -26 -17 -62 8 -50 19 -60 65 -65
43 -4 51 -32 20 -66 -37 -39 -100 -20 -100 30 0 27 -57 78 -86 78 -12 0 -28
10 -37 23 -8 12 -57 66 -109 119 -84 86 -107 103 -209 155 -63 32 -159 76
-214 97 -113 45 -133 46 -339 26 -113 -11 -142 -11 -225 4 -101 17 -551 27
-721 15z m2180 -440 c0 -5 -4 -9 -10 -9 -5 0 -10 7 -10 16 0 8 5 12 10 9 6 -3
10 -10 10 -16z m-510 -2639 c25 -25 25 -44 3 -70 -28 -32 -40 -24 -41 27 -1
68 6 75 38 43z m-3190 -317 c1 -17 1 -17 14 0 13 16 70 21 60 5 -3 -4 8 -8 25
-8 19 0 41 -11 63 -30 18 -16 27 -30 20 -30 -27 0 -10 -20 23 -26 47 -9 47
-34 -1 -34 -43 0 -63 -18 -71 -65 -5 -29 -10 -35 -29 -35 -15 0 -24 -6 -24
-15 0 -8 4 -15 9 -15 18 0 23 -40 7 -56 -9 -8 -16 -27 -16 -41 0 -65 -87 -193
-132 -193 -14 0 -68 -62 -68 -79 0 -6 -18 -16 -40 -22 -34 -10 -43 -10 -58 4
-10 10 -26 17 -35 17 -8 0 -25 13 -37 29 -11 17 -45 41 -75 56 -52 24 -64 26
-185 24 -97 -2 -130 -6 -134 -16 -7 -18 -71 -10 -92 12 -12 11 -31 16 -63 14
-25 -1 -47 2 -48 7 -1 5 4 8 12 6 7 -1 15 4 19 13 3 9 0 15 -9 15 -11 0 -14
23 -14 115 1 102 3 115 19 120 10 3 21 17 24 30 4 14 13 25 21 25 8 0 15 7 15
15 0 8 7 15 15 15 9 0 18 -7 21 -15 8 -19 44 -20 44 -2 0 13 124 27 285 31 28
1 60 7 72 14 29 16 58 15 93 -3 17 -9 30 -12 30 -7 0 5 18 15 40 22 22 7 40
19 40 27 0 7 9 13 20 13 11 0 20 7 20 15 0 8 7 15 16 15 9 0 25 11 36 25 23
30 68 34 68 8z m938 -266 c2 -11 -3 -17 -16 -17 -26 0 -34 11 -20 27 14 17 32
12 36 -10z m552 11 c66 1 110 -3 110 -9 0 -6 -4 -8 -9 -4 -5 3 -12 1 -16 -5
-3 -6 1 -13 10 -16 13 -5 9 -12 -17 -38 -18 -17 -31 -37 -30 -45 2 -7 -6 -20
-17 -28 -16 -11 -21 -25 -21 -59 0 -28 4 -43 10 -39 6 4 10 -5 10 -19 0 -17
14 -40 40 -66 65 -65 59 -70 -82 -70 -68 -1 -148 -7 -178 -14 -47 -11 -58 -11
-77 2 -13 8 -23 20 -23 28 0 13 -38 84 -50 94 -4 3 -9 13 -13 23 -3 9 -14 17
-23 17 -12 0 -15 6 -10 24 5 19 -2 33 -28 60 -18 20 -39 36 -46 36 -7 0 -24
12 -39 28 -22 23 -26 24 -29 10 -4 -21 -28 -23 -60 -4 l-24 13 27 17 c16 11
39 16 57 14 16 -3 31 -1 34 4 3 4 0 8 -5 8 -6 0 -11 6 -11 14 0 8 -6 16 -12
19 -7 3 47 5 120 5 73 0 136 3 140 7 4 4 40 4 80 0 40 -4 122 -7 182 -7z
m-610 -28 c0 -22 -30 -90 -40 -90 -10 0 -40 68 -40 90 0 17 7 20 40 20 33 0
40 -3 40 -20z m-1780 -109 c0 -16 -28 -20 -34 -5 -4 9 1 14 14 14 11 0 20 -4
20 -9z m4100 -212 c0 -39 -4 -59 -12 -59 -6 0 -30 -9 -52 -19 -24 -12 -69 -21
-109 -23 -65 -3 -67 -2 -67 21 0 14 7 33 17 43 13 14 13 18 2 18 -27 1 36 29
66 30 39 0 59 14 52 33 -4 12 2 17 26 19 71 7 77 2 77 -63z"/>
<path d="M2160 1320 c0 -5 9 -10 20 -10 15 0 20 -7 20 -24 0 -16 7 -27 20 -31
11 -4 20 -15 20 -26 0 -18 6 -20 47 -17 36 2 49 7 51 21 3 12 -3 17 -22 17
-14 0 -26 4 -26 10 0 5 -11 12 -25 16 -14 3 -25 11 -25 16 0 18 -29 38 -54 38
-14 0 -26 -4 -26 -10z"/>
<path d="M3726 865 c-3 -8 -1 -15 4 -15 6 0 10 7 10 15 0 8 -2 15 -4 15 -2 0
-6 -7 -10 -15z"/>
<path d="M6660 3240 c0 -5 5 -10 10 -10 6 0 10 5 10 10 0 6 -4 10 -10 10 -5 0
-10 -4 -10 -10z"/>
</g>
</svg>
